<svg width="1246" height="1246" xmlns="http://www.w3.org/2000/svg" xmlns:xlink="http://www.w3.org/1999/xlink" xml:space="preserve" overflow="hidden"><g transform="translate(-1627 -825)"><path d="M1718.15 916.152 1718.15 1311.85 2113.85 1311.85 2113.85 916.152ZM1672.6 825 2159.4 825C2184.58 825 2205 845.418 2205 870.604L2205 1357.4C2205 1382.58 2184.58 1403 2159.4 1403L1672.6 1403C1647.42 1403 1627 1382.58 1627 1357.4L1627 870.604C1627 845.418 1647.42 825 1672.6 825Z" fill-rule="evenodd"/><path d="M2386.15 916.152 2386.15 1311.85 2781.85 1311.85 2781.85 916.152ZM2340.6 825 2827.4 825C2852.58 825 2873 845.418 2873 870.604L2873 1357.4C2873 1382.58 2852.58 1403 2827.4 1403L2340.6 1403C2315.42 1403 2295 1382.58 2295 1357.4L2295 870.604C2295 845.418 2315.42 825 2340.6 825Z" fill-rule="evenodd"/><path d="M2386.15 1584.15 2386.15 1979.85 2781.85 1979.85 2781.85 1584.15ZM2340.6 1493 2827.4 1493C2852.58 1493 2873 1513.42 2873 1538.6L2873 2025.4C2873 2050.58 2852.58 2071 2827.4 2071L2340.6 2071C2315.42 2071 2295 2050.58 2295 2025.4L2295 1538.6C2295 1513.42 2315.42 1493 2340.6 1493Z" fill-rule="evenodd"/><path d="M1718.15 1584.15 1718.15 1979.85 2113.85 1979.85 2113.85 1584.15ZM1672.6 1493 2159.4 1493C2184.58 1493 2205 1513.42 2205 1538.6L2205 2025.4C2205 2050.58 2184.58 2071 2159.4 2071L1672.6 2071C1647.42 2071 1627 2050.58 1627 2025.4L1627 1538.6C1627 1513.42 1647.42 1493 1672.6 1493Z" fill-rule="evenodd"/></g></svg>